<?xml version="1.0" encoding="utf-8"?>
<!-- Generator: Adobe Illustrator 25.2.3, SVG Export Plug-In . SVG Version: 6.00 Build 0)  -->
<svg version="1.1" id="Pokéball" xmlns="http://www.w3.org/2000/svg" xmlns:xlink="http://www.w3.org/1999/xlink" x="0px" y="0px"
	 viewBox="0 0 64 64" style="enable-background:new 0 0 64 64;" xml:space="preserve">
<style type="text/css">
	.st0{fill:#FFFFFF;}
	.st1{fill:#DFDFDF;}
	.st2{fill:#FF1C1C;}
	.st3{fill:#DF1818;}
</style>
<g id="Pokéball_1_">
	<g id="Colours">
		<path id="Down" class="st0" d="M32,40.8c-4.2,0-7.8-3-8.6-7H9.3c1,11.6,10.7,20.7,22.6,20.7s21.6-9.1,22.6-20.7H40.6
			C39.8,37.8,36.2,40.8,32,40.8z"/>
		<path id="Shadow_Down" class="st1" d="M37,53.9c9.4-2.2,16.5-10.3,17.4-20.1h-5.6C48.3,42.8,43.6,50.3,37,53.9z"/>
		<path id="Center" class="st0" d="M37.2,32L37.2,32C37.2,32,37.2,32,37.2,32c0-0.6-0.1-1.2-0.3-1.8c-0.7-2-2.6-3.4-4.9-3.4
			s-4.1,1.4-4.9,3.4c-0.2,0.6-0.3,1.2-0.3,1.8l0,0h0l0,0c0,0.6,0.1,1.2,0.3,1.8c0.7,2,2.6,3.4,4.9,3.4s4.1-1.4,4.9-3.4
			C37.1,33.3,37.2,32.6,37.2,32L37.2,32z"/>
		<path id="Up" class="st2" d="M32,23.2c4.2,0,7.8,3,8.6,7h14.1C53.7,18.6,44,9.5,32.1,9.5S10.6,18.6,9.6,30.2h13.8
			C24.2,26.2,27.8,23.2,32,23.2z"/>
		<path id="Shadow_Up" class="st3" d="M48.9,30.2h5.9C53.8,20.2,46.5,12,36.8,10C43.5,13.5,48.3,21.2,48.9,30.2z"/>
	</g>
	<path id="Line" d="M32.1,9.5c11.9,0,21.6,9.1,22.6,20.7H40.6c-0.8-4-4.4-7-8.6-7s-7.8,3-8.6,7H9.6C10.6,18.6,20.3,9.5,32.1,9.5z
		 M36.9,30.2c0.2,0.6,0.3,1.2,0.3,1.8l0,0h0l0,0c0,0.6-0.1,1.2-0.3,1.8c-0.7,2-2.6,3.4-4.9,3.4s-4.1-1.4-4.9-3.4
		c-0.2-0.6-0.3-1.2-0.3-1.8l0,0h0l0,0c0-0.6,0.1-1.2,0.3-1.8c0.7-2,2.6-3.4,4.9-3.4S36.1,28.2,36.9,30.2z M31.8,54.5
		c-11.9,0-21.6-9.1-22.6-20.7h14.1c0.8,4,4.4,7,8.6,7s7.8-3,8.6-7h13.8C53.4,45.4,43.7,54.5,31.8,54.5z M32,5.2
		C17.2,5.2,5.2,17.2,5.2,32s12,26.8,26.8,26.8s26.8-12,26.8-26.8S46.8,5.2,32,5.2z"/>
</g>
</svg>
