<?xml version="1.0" encoding="utf-8"?>
<!-- Generator: Adobe Illustrator 27.8.1, SVG Export Plug-In . SVG Version: 6.00 Build 0)  -->
<svg version="1.1" id="Pokéball" xmlns="http://www.w3.org/2000/svg" xmlns:xlink="http://www.w3.org/1999/xlink" x="0px" y="0px"
	 viewBox="0 0 256 256" style="enable-background:new 0 0 256 256;" xml:space="preserve">
<style type="text/css">
	.st0{fill:#FFFFFF;}
	.st1{fill:#DFDFDF;}
	.st2{fill:#FF1C1C;}
	.st3{fill:#DF1818;}
</style>
<g id="Pokéball_1_">
	<g id="Colours">
		<path id="Down" class="st0" d="M154.8,154.8c-12.8,12.8-32.9,14.6-47.5,4.9l-42.9,42.9c38.3,32.3,95.5,30.4,131.7-5.8
			s38-93.4,5.8-131.7l-42.3,42.3C169.4,121.9,167.6,142,154.8,154.8z"/>
		<path id="Shadow_Down" class="st1" d="M209.8,179.4c21.9-35.3,18.9-81.5-8.2-114.1l-17,17C210.5,111.3,219,148.4,209.8,179.4z"/>
		<path id="Center" class="st0" d="M143.8,112.2L143.8,112.2L143.8,112.2c-1.8-1.8-4-3.3-6.4-4.6c-8.2-4-18.3-2.4-25.3,4.6
			c-7,7-8.2,16.7-4.6,25.3c1.2,2.4,2.7,4.6,4.6,6.4l0,0l0,0l0,0c1.8,1.8,4,3.3,6.4,4.6c8.2,4,18.3,2.4,25.3-4.6
			c7-7,8.2-16.7,4.6-25.3C147.5,116.4,145.6,114,143.8,112.2L143.8,112.2z"/>
		<path id="Up" class="st2" d="M101.2,101.2c12.8-12.8,32.9-14.6,47.5-4.9l42.9-42.9C153.3,21.2,96.1,23,59.8,59.2
			s-37.7,93.1-5.5,131.4l42-42C86.6,134.1,88.4,114,101.2,101.2z"/>
		<path id="Shadow_Up" class="st3" d="M173.9,71.1l18-18C158.4,25.8,111.3,23,75.7,46.5C106.7,36.7,144.7,45.5,173.9,71.1z"/>
	</g>
	<path id="Line" d="M59.8,59.2c36.2-36.2,93.4-38,131.7-5.8l-42.9,42.9c-14.6-9.7-34.7-7.9-47.5,4.9s-14.6,32.9-4.9,47.5l-42,42
		C22.1,152.3,23.9,95.1,59.8,59.2z M137.4,107.6c2.4,1.2,4.6,2.7,6.4,4.6l0,0l0,0l0,0c1.8,1.8,3.3,4,4.6,6.4
		c4,8.2,2.4,18.3-4.6,25.3c-7,7-16.7,8.2-25.3,4.6c-2.4-1.2-4.6-2.7-6.4-4.6l0,0l0,0l0,0c-1.8-1.8-3.3-4-4.6-6.4
		c-4-8.2-2.4-18.3,4.6-25.3C119.2,105.2,128.9,104,137.4,107.6z M195.9,197.1c-36.2,36.2-93.4,38-131.7,5.8l42.9-42.9
		c14.6,9.7,34.7,7.9,47.5-4.9c12.8-12.8,14.6-32.9,4.9-47.5l42-42C233.9,103.7,232.1,160.9,195.9,197.1z M46.5,46.5
		c-45,45-45,118.1,0,163.1s118.1,45,163.1,0s45-118.1,0-163.1S91.5,1.4,46.5,46.5z"/>
</g>
</svg>
